# xmcd
#
# Track frame offsets:
#   150
#   13908
#   34012
#   44807
#   56820
#   69217
#   83967
#   94415
#   108669
#   118625
#   132404
#   144417
#   158671
#   173853
#   188769
#   198320
#   208966
#   219065
#   230873
#   244466
#   257757
#   271016
#
# Disc length: 3853 seconds
#
# Revision: 0
# Processed by: cddbd v1.5.1PL0 Copyright (c) Steve Scherf et al.
# Submitted via: Media_Universe 3.0
#
DISCID=4d0f0b16
DTITLE=George Strait - Merry Christmas Straight To You and The Christmas Collection
DYEAR=1900
DGENRE=Country
TTITLE0=White Christmas
TTITLE1=Theres A New Kid In Town
TTITLE2=Winter Wonderland
TTITLE3=Merry Christmas Straight To You
TTITLE4=Away In A Manger
TTITLE5=For Christ's Sake It's Christmas
TTITLE6=Frosty The Snowman
TTITLE7=When It's Christmas Time In Texas
TTITLE8=Santa Claus Is Coming To Town
TTITLE9=What A Merry Christmas This Could Be
TTITLE10=Merry Christmas Straight To You
TTITLE11=When Its Christmas Time In Texas
TTITLE12=I Know What I Want For Christmas
TTITLE13=Old Time Christmas
TTITLE14=Santa's On His Way
TTITLE15=Let It Snow
TTITLE16=Jingle Bell Rock
TTITLE17=All I Want For Christmas Is My Two Fronth Teeth
TTITLE18=Merry Christmas (wherever you are)
TTITLE19=Noel Leon
TTITLE20=Rudolph The Red Nosed Reindeer
TTITLE21=The Christmas Song
EXTD=
EXTT0=
EXTT1=
EXTT2=
EXTT3=
EXTT4=
EXTT5=
EXTT6=
EXTT7=
EXTT8=
EXTT9=
EXTT10=
EXTT11=
EXTT12=
EXTT13=
EXTT14=
EXTT15=
EXTT16=
EXTT17=
EXTT18=
EXTT19=
EXTT20=
EXTT21=
PLAYORDER=
